<?xml version="1.0" standalone="no"?>
<!DOCTYPE svg PUBLIC "-//W3C//DTD SVG 20010904//EN"
 "http://www.w3.org/TR/2001/REC-SVG-20010904/DTD/svg10.dtd">
<svg version="1.0" xmlns="http://www.w3.org/2000/svg"
 width="120.000000pt" height="120.000000pt" viewBox="0 0 120.000000 120.000000"
 preserveAspectRatio="xMidYMid meet">
<metadata>
Created by potrace 1.14, written by Peter Selinger 2001-2017
</metadata>
<g transform="translate(0.000000,120.000000) scale(0.100000,-0.100000)"
fill="#000000" stroke="none">
<path d="M444 1079 c111 -123 127 -249 46 -362 l-27 -37 0 63 c0 51 -6 74 -28
115 -16 29 -31 52 -34 52 -3 0 -6 -24 -7 -53 -1 -54 -21 -110 -52 -143 -35
-38 -99 -130 -118 -169 -14 -30 -19 -61 -18 -125 0 -74 4 -91 28 -133 38 -65
95 -118 163 -153 54 -27 66 -29 173 -29 111 0 117 1 190 36 135 64 216 171
227 300 7 71 -11 164 -42 215 l-22 36 -5 -59 c-3 -33 -14 -75 -23 -94 -28 -53
-84 -94 -71 -51 18 61 25 119 22 204 -2 89 -6 104 -39 171 -35 70 -83 125
-152 172 -39 27 -140 70 -185 79 -19 4 -44 10 -55 13 -13 4 -4 -12 29 -48z"/>
</g>
</svg>
