<svg xmlns="http://www.w3.org/2000/svg" width="18" height="18" viewBox="0 0 18 18">
  <defs>
    <style>
      .cls-1 {
        fill: #afafaf;
        fill-rule: evenodd;
      }
    </style>
  </defs>
  <path id="Shape_1_copy_51" data-name="Shape 1 copy 51" class="cls-1" d="M319,32a9,9,0,1,1,9-9A9.011,9.011,0,0,1,319,32Zm0-16.2a7.2,7.2,0,1,0,7.2,7.2A7.209,7.209,0,0,0,319,15.8Zm3.382,8.973-3.6-.9A0.9,0.9,0,0,1,318.1,23V18.5a0.9,0.9,0,0,1,1.8,0v3.8l2.919,0.729A0.9,0.9,0,1,1,322.381,24.771Z" transform="translate(-310 -14)"/>
</svg>
