<svg xmlns="http://www.w3.org/2000/svg" width="44" height="36" viewBox="0 0 44 36">
  <defs>
    <style>
      .cls-1 {
        fill: #617fdd;
        fill-rule: evenodd;
      }
    </style>
  </defs>
  <path id="Shape_1_copy_29" data-name="Shape 1 copy 29" class="cls-1" d="M830.6,1928H813c-6.065,0-11-4.49-11-10s4.935-10,11-10a11.691,11.691,0,0,1,3.437.51A15.413,15.413,0,0,1,830.6,1900c8.491,0,15.4,6.28,15.4,14S839.091,1928,830.6,1928ZM813,1912c-3.639,0-6.6,2.69-6.6,6s2.961,6,6.6,6h17.6c6.065,0,11-4.49,11-10s-4.935-10-11-10c-5.141,0-9.543,3.18-10.7,7.73a2.08,2.08,0,0,1-1.317,1.41,2.379,2.379,0,0,1-2.017-.18A7.064,7.064,0,0,0,813,1912Zm-6.6-6a2.11,2.11,0,0,1-2.2-2c0-6.62,5.921-12,13.2-12a13.96,13.96,0,0,1,7.915,2.4,1.88,1.88,0,0,1,.44,2.8,2.354,2.354,0,0,1-3.079.4,9.272,9.272,0,0,0-5.276-1.6c-4.853,0-8.8,3.59-8.8,8A2.11,2.11,0,0,1,806.4,1906Z" transform="translate(-802 -1892)"/>
</svg>
