<svg xmlns="http://www.w3.org/2000/svg" width="40" height="40" viewBox="0 0 40 40">
  <defs>
    <style>
      .cls-1 {
        fill: #617fdd;
        fill-rule: evenodd;
      }
    </style>
  </defs>
  <path id="Shape_1_copy_11" data-name="Shape 1 copy 11" class="cls-1" d="M388,1904a2,2,0,0,1-2-2,8.01,8.01,0,0,0-8-8,7.912,7.912,0,0,0-6.4,3.25,2.077,2.077,0,0,1-3.208,0A7.913,7.913,0,0,0,362,1894a8.01,8.01,0,0,0-8,8,2,2,0,0,1-4,0,12.011,12.011,0,0,1,12-12,11.8,11.8,0,0,1,8,3.09,11.8,11.8,0,0,1,8-3.09,12.011,12.011,0,0,1,12,12A2,2,0,0,1,388,1904Zm-19.329,25.49a104.045,104.045,0,0,1-11.5-12.25,2,2,0,0,1,3.15-2.47,100.551,100.551,0,0,0,9.683,10.51,99.066,99.066,0,0,0,9.715-10.51,2,2,0,0,1,3.152,2.46,103.244,103.244,0,0,1-11.549,12.27A1.99,1.99,0,0,1,368.671,1929.49ZM372,1918h-0.124a2.016,2.016,0,0,1-1.665-1.11l-4.459-8.91-2.088,3.13A1.99,1.99,0,0,1,362,1912H352a2,2,0,0,1,0-4h8.93l3.406-5.11a1.995,1.995,0,0,1,3.453.22l4.459,8.91,2.088-3.13A1.99,1.99,0,0,1,376,1908h12a2,2,0,0,1,0,4H377.07l-3.406,5.11A2,2,0,0,1,372,1918Z" transform="translate(-350 -1890)"/>
</svg>
