<svg xmlns="http://www.w3.org/2000/svg" width="25.031" height="31" viewBox="0 0 25.031 31">
  <defs>
    <style>
      .cls-1 {
        fill: #557cdd;
        fill-rule: evenodd;
      }
    </style>
  </defs>
  <path id="Фигура_9" data-name="Фигура 9" class="cls-1" d="M970.636,2546.62H966.5s0.508-9.85-5.624-21.51c-3.2,4.48-2.525,16.37-2.525,16.37s-9.043-7.21.459-15.78c-7.5,3.89-11.362,11.45-11.362,11.45s-3.069-9.47,9.526-12.74a20.186,20.186,0,0,0-9.411,1.06s2.726-9.2,11.821-2.93c0.134-5.83,4.984-7.85,11.018-6.54-6.11,3.26-8.263,6.31-8.263,6.31s6.09-5.4,9.985,3.16a18.676,18.676,0,0,0-10.559-1.06S969.128,2528.79,970.636,2546.62Z" transform="translate(-947.094 -2515.62)"/>
</svg>
